<svg xmlns="http://www.w3.org/2000/svg" viewBox="0 0 900 900">
  <g transform="translate(0.000000,900.000000) scale(0.100000,-0.100000)">
    <path
      d="M0 4610 c0 -2415 4 -4390 8 -4390 4 0 13 5 20 12 9 9 12 9 12 -1 0
-7 -9 -15 -20 -18 -18 -5 -20 -14 -20 -109 0 -84 3 -104 14 -104 8 0 16 10 18
22 2 13 11 24 21 26 22 4 22 -17 0 -33 -14 -10 -3 -13 61 -13 47 -1 74 3 71 8
-4 6 -13 10 -21 10 -22 0 -64 30 -64 46 0 8 8 18 17 21 26 10 53 41 53 62 0
36 -17 31 -46 -14 -15 -25 -35 -45 -44 -45 -16 0 -60 51 -60 70 0 16 27 12 34
-6 9 -23 50 -14 54 13 2 15 11 23 30 25 42 5 41 35 -2 43 -37 7 -55 33 -34 47
18 11 38 10 38 -2 0 -13 58 -42 70 -35 17 10 11 34 -10 45 -20 10 -20 12 -3
35 14 19 20 21 28 11 6 -8 24 -11 47 -8 34 4 36 6 25 25 -21 37 -51 57 -81 54
-36 -3 -46 20 -12 29 13 3 27 12 30 20 3 8 15 14 26 14 21 0 27 -14 10 -25
-18 -11 -11 -35 10 -35 20 0 70 44 70 61 0 5 7 9 15 9 19 0 19 26 0 34 -19 7
-19 36 0 36 8 0 15 -8 15 -17 0 -14 6 -11 25 12 34 42 32 88 -3 53 -9 -9 -15
-9 -24 0 -9 9 -7 13 5 18 9 3 17 12 17 19 0 7 12 22 28 34 23 17 25 22 15 40
-17 28 1 36 32 14 31 -23 31 -40 0 -55 -15 -7 -24 -18 -23 -27 5 -23 37 -26
45 -4 7 22 69 83 83 83 6 0 10 5 10 10 0 6 -14 10 -31 10 -20 0 -29 4 -27 13
8 22 49 20 74 -4 l25 -23 26 26 c28 28 24 55 -6 38 -23 -12 -31 -4 -31 32 0
30 9 35 29 16 10 -11 15 -10 25 5 7 9 21 17 30 17 23 0 20 27 -5 40 -13 7 -19
19 -17 33 4 25 38 37 38 13 0 -9 5 -16 10 -16 13 0 13 13 -1 27 -7 7 -4 12 10
16 12 3 21 1 21 -4 0 -5 7 -9 16 -9 14 0 15 7 10 45 -5 29 -4 45 3 45 6 0 11
-4 11 -9 0 -11 44 -61 54 -61 3 0 6 7 6 15 0 8 5 15 10 15 19 0 10 29 -12 36
-21 6 -21 7 -3 20 10 8 29 14 42 14 15 0 23 6 23 18 0 10 14 32 30 50 33 36
36 48 18 55 -7 3 -3 6 10 6 12 1 25 8 29 17 7 19 -11 41 -21 25 -11 -17 -36
-13 -36 5 0 9 -9 18 -20 21 -24 6 -26 28 -4 37 22 9 24 8 24 -9 0 -16 39 -36
52 -28 17 10 6 32 -19 41 l-28 10 28 1 c20 1 27 6 27 20 0 11 9 23 20 26 13 4
20 15 20 30 0 13 6 25 12 28 10 3 8 9 -5 24 -19 22 -23 53 -6 53 17 0 49 -40
49 -61 0 -9 -6 -19 -13 -22 -14 -5 2 -40 18 -40 23 0 48 108 32 135 -10 15 -8
21 11 34 58 40 80 84 42 84 -28 0 -57 -29 -62 -60 -4 -33 -22 -32 -26 1 -2 19
8 36 39 67 23 23 48 42 55 42 8 0 14 7 14 15 0 9 8 19 17 22 21 8 53 40 53 53
0 16 -42 12 -61 -6 -10 -9 -19 -11 -23 -5 -4 5 2 12 13 16 11 3 22 12 25 20 7
20 46 19 46 0 0 -10 10 -15 29 -15 16 0 34 -7 41 -15 14 -17 40 -20 40 -6 0
15 -95 111 -110 111 -8 0 -10 6 -5 18 4 9 9 34 12 55 5 30 10 37 28 37 12 0
29 10 37 22 12 17 23 22 51 20 42 -3 49 14 17 43 -11 10 -20 24 -20 32 0 18
26 17 34 -2 7 -20 76 -21 76 -1 0 8 -15 17 -34 20 -42 8 -77 43 -56 56 17 10
40 -5 40 -26 0 -22 27 -16 33 6 7 27 37 26 37 -1 0 -11 4 -17 10 -14 17 11 11
23 -31 66 -22 22 -38 44 -35 46 3 3 12 1 19 -6 11 -9 17 -8 27 4 14 17 46 20
54 6 3 -5 -1 -11 -9 -15 -17 -6 -21 -40 -4 -34 6 2 21 21 33 41 19 34 20 39 5
47 -15 9 -15 13 -1 45 9 19 24 38 34 41 10 3 18 12 18 20 0 20 -27 29 -44 15
-7 -6 -16 -8 -19 -4 -12 11 -8 23 8 23 7 0 19 8 25 18 8 12 13 13 16 5 8 -18
34 -16 34 2 0 8 -4 15 -10 15 -5 0 -10 8 -10 18 0 16 7 18 38 16 20 -2 45 -3
55 -3 21 -1 23 -27 1 -35 -8 -3 -12 -10 -9 -16 9 -15 25 -12 25 5 0 8 7 15 15
15 8 0 15 5 15 10 0 6 9 10 21 10 15 0 19 -5 14 -19 -3 -12 0 -21 10 -25 22
-8 19 -42 -6 -65 l-21 -19 32 -23 c35 -26 56 -66 63 -119 3 -19 11 -55 17 -80
6 -25 14 -58 17 -75 3 -16 10 -35 15 -41 4 -7 8 -25 7 -40 -1 -16 12 -72 29
-124 16 -52 33 -115 36 -139 8 -51 30 -130 52 -179 8 -18 14 -62 13 -100 l0
-67 -56 -44 c-85 -67 -153 -111 -195 -126 -40 -14 -148 -83 -148 -96 0 -4 -29
-25 -64 -47 -36 -22 -75 -56 -87 -75 -13 -19 -45 -49 -71 -68 -27 -19 -54 -40
-61 -48 -57 -65 -145 -141 -164 -141 -12 0 -51 -21 -78 -43 -24 -19 -140 -103
-163 -119 -14 -9 -37 -28 -51 -42 -15 -14 -35 -34 -46 -45 -11 -10 -28 -31
-38 -45 -14 -20 -24 -25 -38 -21 -15 5 -22 1 -26 -14 -3 -11 -13 -23 -22 -26
-9 -2 -45 -34 -80 -70 -36 -36 -74 -68 -86 -71 -13 -3 -44 -34 -71 -70 -27
-35 -57 -67 -68 -70 -28 -9 -86 -68 -86 -88 0 -15 149 -16 2005 -16 1776 0
2005 2 2005 15 0 8 7 15 15 15 8 0 15 -7 15 -15 0 -10 10 -15 30 -15 20 0 30
5 30 15 0 8 7 15 15 15 8 0 15 -7 15 -15 0 -9 9 -15 21 -15 18 0 20 2 8 16
-22 27 8 34 156 33 77 0 185 2 240 5 305 14 318 14 352 -2 25 -12 32 -20 27
-34 -5 -17 26 -18 763 -18 541 0 772 3 780 11 8 8 13 8 17 0 4 -6 14 -11 22
-11 18 0 74 53 74 69 0 6 7 11 15 11 8 0 15 7 15 15 0 8 9 15 20 15 11 0 20
-7 20 -15 0 -8 -9 -15 -20 -15 -13 0 -20 -7 -20 -19 0 -10 -7 -24 -15 -31 -8
-7 -15 -16 -15 -21 0 -5 454 -9 1010 -9 l1010 0 0 153 0 153 -45 12 c-31 8
-49 20 -56 36 -8 16 -23 26 -46 31 -28 5 -34 10 -30 26 3 10 1 22 -4 25 -14 8
-10 24 6 24 8 0 15 -4 15 -8 0 -5 13 -18 30 -30 36 -27 77 -21 90 14 5 13 16
24 25 24 13 0 15 450 15 4270 l0 4270 -875 0 -875 0 0 -30 c0 -34 26 -52 68
-48 23 3 27 -1 30 -23 2 -21 10 -28 33 -33 40 -8 34 -25 -17 -51 -43 -22 -54
-33 -54 -55 0 -12 11 -15 43 -15 23 1 47 4 52 7 6 3 10 -7 10 -25 0 -25 -5
-32 -25 -37 -14 -3 -29 -16 -35 -28 -5 -12 -15 -22 -22 -22 -7 0 -27 -13 -46
-29 -31 -28 -36 -29 -106 -25 -57 4 -79 1 -98 -12 -34 -22 -55 -3 -28 26 16
17 16 20 2 26 -8 3 -24 1 -36 -5 -26 -14 -53 -14 -88 1 -15 6 -36 10 -45 9
-10 -1 -18 4 -18 12 0 8 10 13 23 13 30 -1 29 28 -1 32 -13 2 -29 -3 -35 -11
-25 -30 -46 -28 -56 6 -5 18 -12 40 -16 49 -5 14 2 18 40 23 32 5 55 17 76 38
29 28 33 30 63 19 43 -16 66 -15 66 2 0 7 10 25 21 40 22 28 20 47 -3 29 -22
-17 -83 -24 -116 -12 -25 8 -31 17 -34 42 -3 28 -9 34 -46 47 -23 8 -42 20
-42 27 0 7 -7 13 -15 13 -22 0 -18 -19 9 -55 26 -34 20 -55 -16 -55 -10 0 -18
-4 -18 -10 0 -5 -11 -12 -25 -16 -40 -10 -16 -27 31 -21 24 2 44 1 44 -4 0
-10 -81 -89 -92 -89 -4 0 -10 5 -13 11 -5 7 -32 8 -81 4 -52 -5 -74 -4 -74 4
0 6 11 11 23 11 16 0 28 9 35 25 11 23 10 25 -16 25 -15 0 -36 -7 -46 -15 -11
-8 -30 -15 -41 -15 -12 0 -42 -11 -67 -24 -25 -13 -65 -26 -89 -28 -38 -3 -44
0 -44 17 0 15 8 21 34 23 37 4 98 42 67 42 -9 0 -25 -5 -35 -12 -27 -17 -51
-4 -44 24 5 19 3 21 -8 11 -27 -26 -47 -15 -54 28 -6 35 -4 44 19 68 14 15 26
32 26 39 0 9 -69 12 -279 12 -239 0 -280 -2 -285 -15 -3 -8 -12 -15 -21 -15
-8 0 -15 7 -15 15 0 13 -324 15 -2860 15 l-2860 0 0 -4390z m4260 4325 c0 -19
-20 -29 -32 -17 -15 15 -2 43 17 36 8 -3 15 -12 15 -19z m488 -44 c18 -11 -2
-45 -35 -60 -13 -6 -20 -16 -17 -24 3 -9 -3 -16 -15 -20 -26 -7 -39 13 -17 25
11 6 14 17 10 34 -11 42 35 70 74 45z m2772 -16 c0 -15 -26 -32 -36 -23 -2 3
-2 13 2 22 8 20 34 21 34 1z m-6056 -4 c9 -14 -4 -41 -20 -41 -8 0 -14 10 -14
25 0 25 23 35 34 16z m-168 -22 c16 -17 16 -22 4 -29 -8 -6 -21 -10 -28 -10
-16 0 -52 42 -45 52 9 15 50 8 69 -13z m2856 -11 c-15 -15 -26 -4 -18 18 5 13
9 15 18 6 9 -9 9 -15 0 -24z m1798 17 c0 -8 -7 -15 -15 -15 -16 0 -20 12 -8
23 11 12 23 8 23 -8z m280 -10 c0 -8 -9 -15 -20 -15 -11 0 -20 7 -20 15 0 8 9
15 20 15 11 0 20 -7 20 -15z m-3470 -19 c0 -2 3 -11 6 -20 4 -12 0 -16 -15
-16 -14 0 -21 6 -21 20 0 11 7 20 15 20 8 0 15 -2 15 -4z m-1387 -74 c13 -12
15 -17 5 -24 -23 -14 -57 -9 -78 12 -11 11 -29 20 -40 20 -11 0 -20 5 -20 10
0 15 112 0 133 -18z m1102 8 c0 -23 -49 -20 -53 3 -3 15 2 18 25 15 17 -2 28
-9 28 -18z m2268 13 c3 -5 -4 -27 -14 -50 -13 -31 -24 -43 -39 -43 -26 0 -27
41 -2 75 16 24 46 33 55 18z m-510 -59 c13 -5 13 -9 0 -35 -17 -34 -38 -37
-53 -8 -21 38 7 61 53 43z m-1561 -21 c10 -9 18 -20 18 -25 0 -18 -43 -3 -58
20 -13 20 -13 22 3 22 10 0 27 -7 37 -17z m4068 -2 c0 -25 -32 -51 -62 -51
-28 0 -37 13 -18 25 6 4 8 14 6 23 -5 14 2 17 34 17 29 1 40 -3 40 -14z
m-2636 -53 c22 -42 20 -55 -4 -33 -11 10 -20 29 -20 42 0 31 5 29 24 -9z
m-1790 13 c14 -22 -36 -71 -72 -71 -7 0 -10 66 -3 78 4 7 71 1 75 -7z m-964
-31 c0 -5 -7 -10 -15 -10 -8 0 -15 5 -15 10 0 6 7 10 15 10 8 0 15 -4 15 -10z
m2922 -34 c5 -22 13 -45 19 -52 7 -9 3 -24 -17 -53 -29 -44 -27 -54 20 -93 16
-13 18 -19 8 -30 -14 -18 -4 -32 13 -18 8 6 12 31 10 63 -1 28 -1 44 2 35 3
-11 14 -18 30 -18 22 0 24 3 18 30 -4 19 -3 30 4 30 14 0 14 37 1 45 -19 12
-11 45 10 45 11 0 20 -7 20 -15 0 -8 5 -15 10 -15 6 0 10 -13 10 -29 0 -17 5
-33 11 -37 6 -3 8 -15 5 -27 -8 -32 11 -57 44 -57 32 0 40 14 15 24 -10 3 -15
19 -15 41 0 36 1 36 31 30 22 -5 36 -2 49 10 12 11 39 19 69 20 l49 2 5 -41
c3 -32 0 -44 -14 -55 -35 -25 -13 -70 23 -48 13 9 21 9 26 1 4 -6 17 -15 30
-19 17 -5 22 -11 17 -23 -18 -43 -17 -52 3 -52 11 0 25 -7 32 -15 7 -8 25 -15
40 -15 15 0 30 -6 33 -14 3 -8 28 -17 56 -21 35 -5 55 -13 62 -26 11 -22 42
-25 58 -5 10 11 40 18 151 31 14 1 28 3 33 4 11 2 8 36 -4 48 -9 9 -5 20 15
43 14 17 26 37 26 43 0 7 8 2 18 -9 25 -31 60 -47 88 -40 14 4 30 3 37 -1 7
-4 21 -8 31 -8 25 0 32 -21 9 -28 -10 -4 -26 -12 -35 -19 -15 -10 -20 -9 -31
6 -11 15 -20 17 -47 11 -32 -7 -33 -8 -15 -21 10 -8 40 -14 66 -14 48 0 99
-16 99 -31 0 -13 68 -39 101 -39 15 0 30 -4 33 -9 3 -5 25 -12 50 -15 24 -4
61 -16 82 -26 21 -11 46 -20 56 -20 10 0 18 -4 18 -10 0 -14 55 -40 85 -40 22
0 26 4 23 22 -2 14 -12 24 -28 28 -16 4 -25 13 -25 25 0 11 -3 25 -7 31 -4 7
-3 26 3 44 9 25 16 31 33 26 11 -3 29 -6 39 -6 10 0 22 -11 27 -25 7 -19 17
-25 39 -25 33 0 89 -48 115 -98 9 -17 25 -33 36 -37 11 -3 20 -14 20 -24 0
-21 105 -131 125 -131 8 0 12 -6 9 -14 -3 -9 13 -32 42 -58 26 -23 63 -68 82
-98 20 -30 57 -75 83 -100 26 -25 59 -68 73 -95 13 -28 36 -60 50 -73 14 -12
26 -29 26 -38 0 -15 2 -15 21 2 20 18 21 18 35 -1 9 -12 14 -14 14 -5 0 7 -9
22 -21 34 -34 35 -109 138 -109 150 0 7 -13 30 -30 52 -16 21 -30 43 -30 47 0
4 -22 36 -50 70 -33 41 -50 71 -50 89 0 16 -4 28 -10 28 -5 0 -10 7 -10 15 0
17 30 35 60 35 31 0 19 -24 -13 -28 -32 -4 -33 -8 -7 -36 82 -86 114 -125 126
-156 27 -72 49 -109 68 -114 31 -9 126 -158 126 -198 0 -20 18 -44 74 -100 26
-26 28 -31 16 -52 -10 -19 -10 -32 0 -60 7 -21 9 -53 5 -77 -4 -24 -3 -45 4
-53 8 -10 6 -20 -10 -39 -11 -15 -17 -32 -13 -38 3 -6 8 -34 9 -62 3 -51 -11
-93 -42 -129 -10 -11 -13 -24 -8 -35 8 -18 11 -63 15 -208 3 -103 38 -189 56
-140 4 8 1 22 -6 30 -10 12 -9 16 4 21 25 10 29 1 29 -73 0 -62 -2 -68 -22
-71 -11 -2 -21 -8 -21 -13 0 -16 32 -23 51 -11 32 21 58 14 79 -20 31 -51 37
-98 14 -115 -10 -7 -25 -11 -34 -7 -24 10 -576 19 -965 16 -265 -2 -373 -6
-410 -16 -27 -8 -85 -17 -128 -20 -47 -4 -93 -15 -116 -27 -35 -18 -45 -19
-132 -8 -52 6 -134 13 -184 15 -49 3 -99 6 -110 7 -11 1 -85 -1 -165 -5 -139
-7 -260 -1 -400 20 -174 27 -959 13 -1295 -23 -265 -28 -396 -45 -408 -52 -6
-4 -29 -10 -52 -14 -22 -4 -54 -13 -71 -20 -40 -16 -64 -6 -64 26 0 30 26 84
40 86 21 3 26 5 57 24 23 13 31 25 28 36 -8 23 11 34 23 13 13 -23 35 -8 22
15 -6 12 -5 22 2 29 9 9 7 16 -5 30 -21 23 -21 32 -2 32 16 0 75 54 75 69 0
19 22 23 34 5 9 -12 15 -14 20 -5 4 6 2 18 -4 26 -7 8 -10 24 -7 35 3 11 -2
27 -10 35 -13 14 -13 18 1 39 14 22 14 25 -2 39 -9 8 -26 17 -36 18 -10 2 -22
11 -26 19 -4 8 -11 24 -17 35 -6 11 -18 46 -27 78 -9 31 -21 57 -25 57 -5 0
-19 16 -31 36 -18 28 -20 38 -10 47 10 9 14 9 17 0 3 -7 9 -13 14 -13 16 0
-22 49 -43 56 -16 5 -19 12 -14 35 4 22 0 35 -17 52 -12 12 -26 22 -32 22 -5
0 -12 11 -13 25 -2 13 -11 30 -20 36 -16 11 -15 14 0 31 16 18 15 21 -17 62
-40 51 -40 49 -19 80 13 17 14 25 5 34 -9 9 -15 8 -22 -5 -12 -22 -29 -23 -29
-3 0 8 4 15 9 15 19 0 19 44 0 72 -24 32 -39 36 -39 9 0 -10 -7 -22 -16 -25
-10 -4 -14 -12 -10 -23 4 -9 1 -32 -5 -52 -9 -26 -9 -36 0 -39 6 -2 11 -14 11
-27 0 -17 -8 -26 -30 -34 -28 -9 -29 -9 -20 9 14 26 12 40 -5 40 -8 0 -15 -4
-15 -10 0 -5 -7 -10 -15 -10 -8 0 -15 7 -15 15 0 8 7 15 15 15 17 0 20 16 4
26 -6 3 -23 -3 -39 -14 -29 -22 -40 -20 -40 9 0 10 -6 22 -14 26 -22 13 -37
51 -30 76 4 17 1 26 -10 30 -11 4 -13 15 -9 41 4 29 2 36 -10 36 -9 0 -21 9
-28 21 -15 28 24 105 64 126 28 14 30 13 57 -17 16 -18 34 -29 40 -25 8 5 8
11 -1 21 -9 11 -9 18 -1 26 14 14 28 2 34 -27 4 -19 5 -19 17 4 11 19 11 25 0
32 -7 4 -10 11 -6 16 5 4 12 1 16 -6 7 -10 13 -11 27 -2 18 10 18 11 -4 17
-28 8 -23 29 7 29 14 0 31 15 49 41 15 22 43 56 63 75 20 20 40 45 43 57 11
34 33 47 61 34 23 -11 25 -9 25 12 0 27 74 114 84 98 12 -19 -5 -62 -24 -62
-30 0 -35 -21 -9 -42 24 -18 24 -18 4 -36 -11 -9 -29 -30 -39 -47 -11 -16 -25
-34 -33 -38 -8 -5 -13 -27 -13 -62 0 -51 -1 -54 -30 -60 -25 -5 -30 -11 -25
-26 4 -13 2 -19 -8 -19 -24 0 -28 -29 -6 -41 16 -8 18 -13 8 -25 -16 -20 -29
-17 -29 6 0 15 -7 20 -25 20 -30 0 -32 -15 -5 -32 11 -7 20 -19 20 -26 0 -7 4
-11 9 -7 5 3 12 1 16 -5 3 -5 1 -10 -4 -10 -6 0 -11 -9 -11 -20 0 -24 35 -28
44 -4 4 12 14 14 36 9 34 -7 42 13 15 35 -22 18 -1 31 37 23 21 -4 28 -2 28 9
0 9 13 32 30 53 16 20 32 46 36 58 7 22 105 151 124 162 14 9 41 75 34 86 -2
5 0 18 6 29 10 18 14 19 27 8 13 -11 18 -9 31 10 8 12 20 22 27 22 16 0 61 52
70 80 3 11 12 20 19 20 7 0 21 9 31 20 10 11 26 20 35 20 10 0 23 6 29 14 7 8
24 17 38 21 15 3 57 27 95 52 47 32 81 47 114 51 34 3 55 13 81 38 20 19 40
34 44 34 5 0 9 9 9 20 0 23 -15 27 -24 5 -5 -15 -46 -22 -46 -7 1 20 29 45 80
68 31 14 60 48 60 71 0 30 12 29 46 -2 l26 -24 -21 -27 -20 -26 24 -32 c14
-18 25 -38 25 -45 0 -15 32 -27 95 -35 38 -6 53 -13 60 -28 16 -34 41 -45 62
-26 10 8 36 19 58 23 36 6 68 20 104 44 11 7 12 13 3 24 -8 9 -9 23 -2 48 6
18 10 46 10 60 0 17 9 32 25 43 14 9 25 23 25 30 0 8 12 17 27 21 15 3 42 21
59 39 29 30 32 38 27 76 -6 39 -5 42 18 38 18 -2 25 -12 31 -42z m388 34 c0
-5 -10 -10 -22 -10 -19 0 -20 2 -8 10 19 13 30 13 30 0z m-2500 -66 c0 -25 36
-52 63 -47 16 3 47 -5 81 -21 30 -14 60 -26 65 -26 6 0 11 -4 11 -9 0 -13 -22
-29 -53 -36 -15 -4 -27 -11 -27 -16 0 -5 -13 -9 -29 -9 -17 0 -33 -5 -36 -10
-5 -8 -11 -7 -21 1 -16 13 -19 29 -5 29 5 0 22 5 37 10 l28 11 -29 24 c-33 30
-34 30 -77 8 -68 -34 -67 -34 -78 -13 -9 17 -14 18 -30 7 -11 -6 -23 -20 -26
-29 -3 -11 -15 -17 -32 -17 -15 0 -48 -3 -73 -6 -32 -5 -49 -4 -54 5 -5 8 -14
1 -27 -20 -17 -29 -17 -44 0 -45 41 -3 84 -19 92 -36 8 -14 8 -20 -2 -23 -34
-11 -110 -16 -303 -18 -192 -3 -210 -2 -213 14 -2 10 8 28 22 41 15 14 26 35
26 51 0 14 -2 26 -4 26 -16 0 -36 -14 -36 -25 0 -7 -7 -18 -15 -25 -8 -7 -15
-25 -15 -41 0 -33 -2 -35 -57 -44 -35 -5 -41 -4 -40 11 2 15 -9 18 -73 20 -41
2 -88 -1 -103 -8 -33 -13 -47 -3 -50 37 -2 25 2 28 47 40 27 7 56 22 65 33 9
11 33 25 54 32 45 14 54 50 11 50 -21 0 -25 4 -22 22 4 32 37 35 59 7 16 -21
21 -22 38 -11 30 18 46 15 91 -13 29 -18 47 -24 66 -19 23 6 25 4 19 -15 -5
-17 -2 -21 14 -21 11 0 25 9 31 20 11 21 52 36 70 25 8 -5 8 -11 -1 -21 -18
-22 -5 -27 40 -13 50 15 52 30 6 52 -67 32 -34 71 37 44 38 -15 44 -15 105 4
51 17 67 18 78 9 12 -10 21 -10 44 0 23 9 33 9 49 -1 19 -12 26 -11 68 14 28
17 114 10 114 -9z m2030 6 c0 -11 -7 -20 -15 -20 -8 0 -15 9 -15 20 0 11 7 20
15 20 8 0 15 -9 15 -20z m3120 -55 c0 -8 -7 -15 -15 -15 -9 0 -12 6 -9 15 4 8
10 15 15 15 5 0 9 -7 9 -15z m-140 -15 c0 -5 -9 -10 -21 -10 -11 0 -17 5 -14
10 3 6 13 10 21 10 8 0 14 -4 14 -10z m-3130 -44 c0 -2 3 -11 6 -20 5 -12 0
-16 -20 -16 -24 0 -35 18 -19 33 7 8 33 10 33 3z m1325 -35 c7 -12 -12 -24
-25 -16 -11 7 -4 25 10 25 5 0 11 -4 15 -9z m-1693 -73 c-15 -15 -26 -4 -18
18 5 13 9 15 18 6 9 -9 9 -15 0 -24z m243 -34 c0 -13 -10 -22 -32 -29 -18 -5
-33 -13 -33 -17 0 -4 -5 -8 -11 -8 -6 0 4 18 21 40 33 42 55 48 55 14z m-2867
-12 c5 -15 -23 -26 -45 -17 -17 6 -17 7 2 21 21 16 37 14 43 -4z m4102 -27 c0
-8 -7 -15 -15 -15 -8 0 -15 7 -15 15 0 8 7 15 15 15 8 0 15 -7 15 -15z m-3660
-50 c0 -27 -25 -44 -40 -29 -15 15 0 54 21 54 14 0 19 -7 19 -25z m224 -13 c9
-15 -10 -67 -24 -67 -14 0 -33 52 -24 67 3 4 14 8 24 8 10 0 21 -4 24 -8z
m4156 -71 c0 -23 -16 -36 -25 -21 -9 14 1 40 15 40 5 0 10 -9 10 -19z m-4235
-16 c0 -13 -8 -21 -22 -23 -12 -2 -33 -14 -48 -28 -14 -13 -31 -22 -36 -19
-15 10 -10 35 9 42 9 4 25 18 36 31 22 28 61 27 61 -3z m1368 -32 c-10 -41
-58 -86 -83 -78 -24 8 -29 65 -6 65 7 0 19 6 26 14 6 8 24 17 38 19 15 2 28 5
30 6 1 0 -1 -11 -5 -26z m4452 18 c3 -5 -7 -19 -22 -31 -23 -18 -36 -21 -71
-16 -65 9 -71 17 -26 37 42 19 109 25 119 10z m-6065 -25 c0 -17 -38 -28 -46
-14 -7 11 13 28 34 28 6 0 12 -6 12 -14z m282 -48 c13 -20 18 -21 32 -9 14 11
19 10 36 -10 25 -31 25 -32 -10 -71 -34 -37 -36 -44 -15 -52 18 -6 20 -32 3
-42 -6 -4 -21 5 -34 22 l-23 28 -31 -29 c-55 -53 -44 -68 83 -102 37 -10 67
-21 67 -25 0 -4 -7 -5 -15 -2 -8 4 -21 2 -28 -4 -6 -5 -30 -12 -53 -16 -33 -5
-44 -2 -59 14 -26 29 -76 26 -106 -6 -13 -14 -36 -32 -51 -40 -16 -8 -28 -22
-28 -30 0 -13 7 -15 38 -9 20 3 58 6 83 5 53 -1 162 25 167 40 2 6 15 10 28
10 35 0 34 -47 -1 -60 -30 -11 -31 -18 -7 -36 16 -12 16 -13 0 -14 -9 0 -19 4
-22 9 -10 15 -48 0 -42 -16 8 -20 -61 -83 -91 -83 -21 0 -22 3 -13 20 6 12 21
20 36 20 26 0 43 25 27 41 -23 23 -128 -54 -121 -89 3 -11 -6 -21 -27 -28 -23
-9 -30 -17 -28 -35 1 -17 -9 -33 -39 -56 -39 -32 -65 -35 -54 -7 8 21 -9 25
-42 9 -22 -11 -32 -25 -36 -51 -4 -20 -14 -38 -24 -41 -27 -9 -91 -83 -85 -99
3 -8 -5 -16 -22 -20 -32 -8 -46 3 -23 20 12 9 18 32 21 79 4 65 3 67 -20 67
-28 0 -32 30 -4 37 22 6 81 75 81 96 0 23 -11 27 -36 10 -13 -8 -31 -12 -40
-9 -15 6 -14 9 6 31 13 14 28 25 34 25 6 0 30 18 53 40 38 36 40 41 30 65 -7
13 -18 25 -24 25 -7 0 -13 5 -13 10 0 6 8 10 18 8 12 -2 18 5 20 26 5 40 -31
64 -43 28 -7 -25 -54 -47 -69 -32 -5 5 -23 10 -38 10 -50 0 -27 49 39 84 43
22 96 84 89 102 -3 9 -13 14 -20 11 -8 -3 -20 0 -26 8 -8 9 -22 12 -41 8 -22
-4 -29 -2 -29 11 0 9 6 16 14 16 8 0 16 7 20 15 3 8 12 15 21 15 9 0 27 12 40
26 24 26 25 26 25 6 0 -45 89 -33 107 14 3 8 16 14 29 14 19 0 24 -5 24 -26 0
-15 -8 -33 -17 -40 -17 -12 -17 -13 0 -20 12 -4 25 0 38 15 21 22 54 28 64 11
3 -5 19 -10 36 -10 28 0 39 8 86 64 26 32 36 32 55 4z m5017 -19 c27 -36 17
-58 -18 -40 -14 8 -21 21 -21 41 0 38 10 38 39 -1z m-3803 -28 c-15 -24 -36
-11 -36 21 l0 32 21 -21 c12 -11 18 -26 15 -32z m-946 -80 c0 -13 -37 -24 -51
-15 -8 4 -7 9 2 15 19 12 49 11 49 0z m-832 -8 c-10 -2 -26 -2 -35 0 -10 3 -2
5 17 5 19 0 27 -2 18 -5z m837 -83 c-3 -5 -13 -10 -21 -10 -8 0 -12 5 -9 10 3
6 13 10 21 10 8 0 12 -4 9 -10z m-91 -44 c-10 -8 -21 -12 -24 -9 -3 2 4 11 14
19 11 7 22 12 25 9 2 -3 -4 -12 -15 -19z m506 -35 c0 -30 -11 -51 -26 -51 -17
0 -18 24 -4 51 14 24 30 25 30 0z m-1162 -104 c2 -10 -10 -32 -27 -50 -17 -17
-42 -44 -56 -59 -20 -20 -24 -33 -19 -52 3 -15 10 -29 15 -32 25 -15 4 -24
-46 -18 -38 5 -55 3 -55 -4 0 -7 11 -14 25 -18 14 -3 25 -13 25 -21 0 -13 -3
-13 -15 -3 -21 18 -64 -12 -72 -51 -3 -16 -10 -32 -14 -35 -12 -7 -11 -54 1
-54 5 0 22 16 37 35 32 41 53 45 53 11 0 -31 -33 -72 -65 -80 -20 -5 -25 -13
-25 -37 0 -27 3 -31 22 -26 20 6 20 5 3 -11 -13 -13 -19 -14 -22 -4 -6 15 -29
16 -38 2 -4 -6 -1 -18 6 -26 16 -19 4 -30 -16 -14 -8 7 -15 8 -15 3 0 -5 -19
-17 -42 -28 -40 -17 -42 -17 -55 0 -11 16 -11 21 1 34 34 40 70 149 56 172 -7
10 -14 10 -35 1 -55 -25 -59 -10 -12 56 17 26 35 49 38 52 14 11 30 51 24 60
-3 5 12 22 34 37 22 16 50 46 62 69 18 33 36 47 98 77 81 39 124 44 129 14z
m602 -112 c0 -12 -28 -35 -44 -35 -11 0 -6 26 6 38 17 17 38 15 38 -3z m617
-231 c-9 -9 -28 6 -21 18 4 6 10 6 17 -1 6 -6 8 -13 4 -17z m-1077 -19 c0 -8
-4 -15 -9 -15 -13 0 -22 16 -14 24 11 11 23 6 23 -9z m-5 -81 c0 -25 -5 -31
-45 -44 -25 -9 -55 -21 -67 -28 -12 -7 -27 -12 -33 -12 -7 0 -23 -9 -37 -20
-26 -21 -77 -27 -87 -11 -11 17 6 41 29 41 25 0 91 25 97 37 5 12 85 53 102
53 9 0 16 5 16 11 0 6 6 9 13 7 6 -3 12 -18 12 -34z m-337 -156 c-5 -15 -48
-24 -48 -10 0 14 12 22 33 22 10 0 17 -5 15 -12z m212 -2 c0 -15 -37 -32 -47
-22 -3 3 -3 12 0 21 8 19 47 20 47 1z m1330 -96 c0 -11 -4 -20 -9 -20 -11 0
-22 26 -14 34 12 12 23 5 23 -14z m4512 -588 c22 -46 9 -61 -25 -30 -18 17
-24 31 -20 46 8 32 26 26 45 -16z m-1074 -265 c3 -15 -2 -18 -25 -15 -17 2
-29 10 -31 21 -3 15 2 18 25 15 17 -2 29 -10 31 -21z m-938 -202 c0 -8 -7 -15
-15 -15 -8 0 -15 7 -15 15 0 8 7 15 15 15 8 0 15 -7 15 -15z m170 -88 c31 -16
36 -41 16 -72 -17 -26 -69 -35 -81 -15 -12 19 -40 10 -67 -20 -35 -41 -60 -38
-113 13 -42 41 -44 44 -29 65 18 26 52 29 69 5 13 -17 14 -17 32 0 11 9 28 17
39 17 10 0 26 5 34 10 21 14 70 12 100 -3z m-273 -140 c-2 -6 -20 -19 -41 -30
-21 -11 -40 -26 -43 -33 -3 -8 -11 -14 -19 -14 -21 0 -18 59 4 67 31 11 61 44
55 62 -4 9 6 3 21 -13 15 -15 25 -33 23 -39z m268 -39 c4 -18 20 -52 36 -76
16 -24 29 -49 29 -57 0 -26 -17 -25 -36 2 -11 14 -38 48 -61 75 -54 61 -57 88
-9 88 31 0 35 -4 41 -32z m901 -41 c-3 -12 -6 -29 -6 -37 0 -9 -5 -7 -16 8
-13 19 -21 22 -50 16 -19 -3 -34 -2 -34 3 0 19 23 30 66 31 42 0 45 -1 40 -21z
m357 16 c3 -5 -6 -16 -19 -26 -26 -20 -30 -16 -14 14 11 20 25 25 33 12z m127
-25 c0 -5 -4 -8 -10 -8 -5 0 -10 10 -10 23 0 18 2 19 10 7 5 -8 10 -18 10 -22z
m240 1 c0 -24 -23 -21 -28 4 -2 10 3 17 12 17 10 0 16 -9 16 -21z m-443 -65
c2 -7 -13 -15 -34 -19 -21 -4 -43 -11 -50 -17 -16 -13 -55 -6 -61 11 -4 11 3
13 32 8 26 -4 36 -2 36 8 0 7 6 16 13 19 20 8 60 2 64 -10z m-212 -124 c15
-29 15 -30 -5 -30 -23 0 -35 22 -26 45 8 22 14 19 31 -15z m492 4 c3 -8 1 -25
-5 -37 -6 -12 -14 -32 -17 -44 -9 -32 -21 -29 -34 8 -12 36 -14 72 -4 82 12
13 54 7 60 -9z m-179 -10 c43 -25 77 -113 52 -129 -6 -4 -8 -15 -5 -24 4 -14
-4 -20 -40 -28 -40 -9 -45 -8 -50 8 -4 11 -14 19 -23 19 -20 0 -62 39 -62 57
0 8 7 28 16 46 35 69 62 81 112 51z m377 -14 c0 -18 -25 -24 -45 -10 -13 9
-13 11 0 20 20 14 45 8 45 -10z m-1741 -40 c17 -10 43 -31 57 -47 38 -42 119
-159 119 -173 0 -7 14 -41 30 -76 17 -34 37 -82 46 -106 8 -24 27 -65 43 -93
15 -27 45 -99 65 -160 21 -60 49 -125 62 -142 22 -29 75 -136 106 -213 25 -63
44 -93 82 -130 22 -22 44 -40 48 -40 4 0 8 -9 8 -19 0 -25 11 -32 38 -24 28 7
29 39 2 46 -23 6 -27 27 -5 27 23 0 18 26 -10 44 -14 9 -25 23 -25 31 0 27 63
5 108 -39 30 -28 50 -40 66 -38 14 2 26 -3 30 -13 4 -11 13 -14 31 -9 16 4 37
-1 62 -16 40 -24 88 -29 105 -12 8 8 8 15 -1 25 -9 12 -5 13 26 6 21 -5 50
-11 65 -14 25 -5 27 -8 16 -25 -20 -31 -1 -35 32 -6 32 26 56 26 46 0 -8 -22
22 -17 34 6 8 15 21 20 56 20 25 0 64 -9 86 -20 23 -11 48 -20 57 -20 8 0 23
-8 33 -17 14 -13 21 -14 30 -5 17 17 48 15 48 -3 0 -7 -7 -18 -17 -23 -12 -7
-14 -17 -10 -41 4 -18 2 -31 -3 -31 -6 0 -10 -6 -10 -14 0 -7 -11 -21 -25 -30
-13 -9 -22 -22 -19 -30 4 -10 -2 -12 -21 -8 -21 3 -27 0 -32 -17 -3 -11 -9
-21 -14 -21 -6 0 -13 -10 -18 -22 -4 -12 -23 -27 -42 -33 -26 -9 -35 -19 -40
-43 -9 -45 -28 -65 -58 -59 -33 6 -51 -1 -51 -22 0 -12 9 -16 32 -16 23 0 34
-5 36 -17 3 -15 -1 -16 -29 -8 -17 5 -36 7 -40 4 -12 -7 -11 -54 1 -54 6 0 10
-9 10 -20 0 -25 -15 -26 -24 -2 -15 39 -32 62 -45 62 -11 0 -13 -12 -7 -61 3
-34 6 -74 6 -88 1 -24 2 -24 14 -8 20 27 36 20 37 -15 1 -18 2 -60 3 -93 1
-33 7 -69 14 -80 6 -11 14 -36 17 -56 3 -21 14 -48 25 -62 11 -14 20 -35 20
-47 0 -11 7 -34 15 -49 8 -16 16 -39 19 -52 7 -37 18 -62 38 -84 10 -10 24
-37 30 -58 6 -21 19 -42 29 -47 19 -11 31 -47 18 -56 -16 -9 -10 -25 9 -22 14
2 17 -6 19 -47 4 -64 33 -166 50 -172 22 -9 16 -43 -8 -43 -18 0 -20 -2 -8
-16 10 -13 10 -20 -5 -45 -10 -17 -15 -38 -11 -49 8 -25 21 -26 29 -3 6 15 9
15 16 3 6 -10 1 -22 -16 -38 -21 -22 -23 -31 -18 -81 3 -31 7 -62 10 -68 2 -7
0 -13 -5 -13 -5 0 -17 -12 -26 -27 -14 -21 -15 -30 -6 -45 15 -24 -1 -56 -32
-64 -19 -4 -23 -11 -20 -32 3 -22 -3 -32 -31 -51 -28 -18 -36 -30 -36 -53 0
-18 -6 -31 -17 -35 -10 -4 -31 -19 -47 -34 -15 -15 -34 -25 -40 -23 -7 3 -29
-10 -49 -28 -20 -18 -63 -50 -95 -70 l-59 -36 -33 19 c-18 11 -34 29 -37 39
-3 11 -16 26 -29 35 -14 9 -29 27 -34 41 -12 31 -30 31 -30 -1 0 -29 -3 -30
-35 -9 -31 20 -31 30 -2 38 l22 7 -22 9 c-13 5 -23 16 -23 24 0 21 -18 30 -35
16 -10 -8 -16 -7 -27 8 -7 10 -22 23 -32 29 -19 10 -18 11 2 22 29 15 30 45 2
36 -17 -5 -21 -1 -26 24 -4 16 -12 32 -20 35 -8 3 -14 12 -14 20 0 7 -7 16
-15 20 -12 4 -13 11 -4 33 8 22 7 30 -6 39 -11 8 -15 20 -11 32 5 16 1 21 -21
25 -70 14 -89 21 -101 39 -16 21 -42 24 -42 4 0 -25 -23 -30 -40 -9 -12 15
-24 19 -45 16 -19 -4 -30 -1 -37 11 -12 20 -34 21 -46 0 -9 -16 -10 -16 -69
14 -12 6 -65 11 -120 10 -54 -1 -108 2 -120 6 -12 4 -32 2 -44 -5 -13 -6 -52
-13 -87 -14 -47 -1 -67 -6 -74 -18 -6 -12 -14 -14 -31 -8 -54 21 -157 -9 -157
-45 0 -7 -9 -15 -19 -19 -11 -3 -22 -13 -25 -21 -8 -20 -28 -7 -22 14 3 10 -6
31 -19 47 -20 25 -28 28 -42 19 -10 -6 -22 -20 -28 -32 -10 -22 -35 -31 -35
-12 0 6 -6 10 -14 10 -7 0 -27 7 -42 15 -33 17 -64 20 -64 5 0 -5 10 -14 22
-21 18 -10 19 -13 6 -20 -10 -6 -26 -4 -44 5 -15 8 -40 12 -55 9 -18 -3 -41 3
-71 21 -25 14 -56 26 -69 26 -14 0 -34 7 -45 15 -19 14 -19 15 5 33 l24 19
-27 7 c-14 3 -26 11 -26 16 0 11 40 23 61 19 8 -2 26 5 40 14 15 10 44 20 65
23 53 8 128 40 190 80 28 19 61 34 73 34 11 0 21 4 21 10 0 5 12 13 28 16 15
4 38 16 52 26 65 47 128 62 284 66 82 2 168 -1 193 -6 30 -7 64 -6 111 3 75
14 237 10 292 -7 45 -14 158 -78 281 -159 88 -58 122 -78 159 -95 19 -9 43
-23 53 -32 10 -9 29 -17 41 -17 12 -1 38 -13 58 -28 52 -40 89 -36 123 12 31
46 27 77 -12 92 -17 6 -23 14 -19 25 7 17 -14 54 -30 54 -7 0 -20 12 -29 27
-23 35 -76 83 -91 83 -14 0 -54 64 -54 85 0 7 -8 16 -18 19 -10 3 -42 29 -71
56 -32 30 -62 50 -77 50 -12 0 -26 5 -30 11 -10 17 -88 47 -141 54 -26 4 -68
13 -92 21 -27 9 -64 13 -100 9 -131 -12 -166 -17 -176 -25 -26 -21 -161 -8
-188 19 -6 6 -24 11 -39 11 -15 0 -28 4 -28 9 0 5 -15 11 -32 14 -64 11 -93
20 -110 34 -12 10 -18 11 -23 3 -4 -7 -19 -10 -34 -7 -22 5 -103 -26 -165 -61
-4 -2 -5 5 -2 16 7 20 6 20 -23 6 -17 -9 -31 -19 -31 -24 0 -10 -79 -30 -119
-30 -37 0 -152 -42 -192 -70 -16 -12 -46 -24 -66 -27 -21 -3 -46 -13 -56 -22
-10 -8 -33 -20 -50 -26 -19 -6 -37 -21 -45 -37 -15 -31 -27 -36 -36 -13 -3 8
-15 14 -28 12 -19 -2 -23 2 -21 26 1 15 -2 27 -7 27 -18 0 -57 -19 -73 -35
-26 -25 -21 -37 13 -30 24 5 30 3 30 -10 0 -8 7 -18 15 -21 8 -4 12 -11 8 -17
-4 -6 -11 -3 -20 8 -17 24 -35 8 -37 -32 0 -16 -12 -40 -25 -53 -12 -14 -27
-35 -32 -47 -5 -14 -17 -23 -29 -23 -24 0 -26 -22 -4 -41 11 -9 14 -23 11 -46
-3 -18 -1 -33 4 -33 5 0 15 -11 21 -25 7 -16 19 -25 32 -24 12 1 43 1 70 1 46
-2 48 -3 30 -16 -27 -21 -9 -34 51 -39 30 -3 51 -10 54 -18 7 -22 20 -27 90
-29 65 -2 120 -5 152 -8 9 -1 19 -11 22 -22 3 -14 14 -20 31 -20 14 0 26 -4
26 -10 0 -5 9 -10 20 -10 13 0 22 9 27 27 l6 28 10 -28 c11 -33 27 -35 46 -5
12 19 14 20 23 5 5 -10 6 -22 3 -28 -4 -6 1 -19 11 -30 16 -18 16 -19 -8 -19
-14 0 -31 -6 -37 -14 -10 -11 -8 -17 9 -29 18 -12 18 -15 5 -20 -8 -4 -15 -13
-15 -22 0 -23 -20 -18 -42 10 -23 30 -42 33 -33 5 4 -14 2 -20 -9 -20 -9 0
-21 9 -28 20 -15 23 -38 27 -38 6 0 -7 7 -19 15 -26 21 -18 19 -27 -11 -43
-23 -12 -24 -15 -10 -27 14 -11 19 -10 34 3 16 15 20 14 47 -19 25 -30 30 -32
38 -18 7 12 5 19 -7 26 -21 12 -22 68 -1 68 8 0 17 -11 21 -25 7 -30 24 -33
24 -5 0 11 7 20 15 20 9 0 12 -6 8 -16 -4 -11 2 -23 18 -35 26 -20 49 -25 49
-9 0 6 -7 10 -16 10 -11 0 -14 8 -12 27 3 25 7 28 44 29 23 0 49 4 58 7 20 8
21 27 1 27 -8 0 -33 6 -55 12 -33 11 -40 17 -40 39 0 26 23 45 41 33 5 -3 9
-16 9 -28 0 -19 7 -25 33 -30 70 -13 99 -12 104 4 2 8 9 23 14 33 11 20 -10
24 -29 5 -9 -9 -15 -9 -23 -1 -8 8 -5 13 11 18 27 9 22 39 -8 43 -12 2 -22 8
-22 13 0 16 31 10 58 -12 24 -18 27 -19 38 -4 16 22 81 11 89 -16 4 -13 16
-19 35 -19 16 0 32 -5 36 -12 5 -8 10 -7 18 4 13 17 50 33 41 17 -4 -5 -4 -17
-1 -25 4 -11 10 -12 25 -4 17 9 20 6 23 -18 2 -21 9 -28 31 -30 15 -2 27 -6
27 -8 0 -17 -25 -46 -46 -54 -31 -12 -42 -39 -21 -52 10 -5 17 -16 17 -23 0
-18 35 -55 51 -55 8 0 10 17 7 50 -4 44 -3 50 13 50 12 0 19 7 19 20 0 11 -7
20 -15 20 -8 0 -15 7 -15 15 0 8 8 15 19 15 10 0 24 7 31 15 7 8 27 15 46 15
29 0 33 -3 31 -27 -2 -28 19 -41 48 -29 19 7 8 36 -14 36 -16 0 -41 37 -41 61
0 5 -11 20 -25 33 -38 35 -30 38 25 9 47 -24 51 -25 68 -9 10 9 24 16 30 16
19 0 14 -35 -8 -55 -22 -20 -26 -45 -9 -62 19 -19 0 -53 -32 -60 -34 -6 -46
-20 -31 -35 14 -14 72 0 72 18 0 8 5 14 11 14 6 0 20 11 31 25 23 30 36 31 54
8 20 -27 17 -33 -16 -33 -32 0 -43 -26 -15 -36 8 -4 15 -16 15 -28 -1 -19 -2
-19 -11 -3 -14 24 -59 23 -59 -2 0 -11 -7 -26 -15 -35 -8 -8 -15 -19 -15 -25
0 -14 17 -14 25 -1 4 6 16 3 31 -7 19 -12 24 -22 20 -39 -5 -20 -1 -23 59 -35
48 -9 73 -20 93 -41 15 -15 33 -28 40 -28 6 0 12 -9 12 -19 0 -26 29 -35 50
-16 23 21 50 19 50 -4 0 -34 10 -49 30 -44 12 3 22 -3 30 -17 10 -19 18 -21
47 -17 29 5 40 1 74 -30 26 -24 45 -34 59 -30 10 3 24 -1 31 -9 6 -8 17 -14
23 -14 7 0 23 -10 36 -22 13 -12 33 -23 45 -23 11 -1 44 -19 73 -40 39 -29 52
-46 52 -65 0 -47 -21 -100 -45 -116 -16 -10 -25 -26 -25 -43 0 -38 -14 -54
-39 -46 -17 5 -21 2 -21 -14 0 -11 -5 -23 -10 -26 -6 -4 -19 -24 -30 -45 -28
-54 -51 -65 -83 -40 -25 20 -25 20 -89 0 -34 -11 -63 -20 -64 -20 -1 0 -12 9
-25 21 -18 15 -31 19 -59 14 -33 -6 -40 -2 -72 32 -43 49 -91 71 -113 53 -12
-10 -22 -10 -39 -2 -18 8 -27 7 -40 -6 -15 -15 -16 -14 -16 11 0 17 -5 27 -14
27 -11 0 -13 -9 -9 -34 7 -43 -13 -58 -38 -28 -9 12 -25 22 -34 22 -12 0 -16
6 -13 18 4 15 1 18 -18 14 -27 -5 -34 -42 -8 -42 8 0 12 -4 9 -10 -4 -6 -14
-5 -27 3 -16 9 -22 9 -25 0 -3 -7 -11 -13 -19 -13 -8 0 -14 -4 -14 -10 0 -5
-8 -10 -17 -10 -17 1 -17 1 -1 14 27 20 28 60 1 64 -13 2 -24 12 -27 25 -2 14
-4 10 -3 -9 1 -17 -4 -38 -11 -46 -17 -21 -62 -11 -62 14 0 13 -6 18 -17 16
-13 -2 -19 -14 -21 -41 -3 -30 -7 -37 -20 -35 -9 2 -21 13 -27 26 -9 20 -15
22 -44 17 -24 -5 -38 -2 -52 10 -13 13 -29 16 -61 11 -66 -9 -96 -12 -119 -14
-18 -2 -20 -6 -15 -28 7 -28 2 -29 -46 -9 -13 5 -18 2 -18 -9 0 -9 5 -16 10
-16 12 0 13 -37 1 -44 -5 -3 -12 5 -15 19 -5 18 -13 25 -31 25 -13 0 -27 5
-30 10 -4 6 -19 9 -33 8 -21 -2 -28 2 -30 20 -2 14 -10 22 -22 22 -11 0 -29
10 -40 22 -17 19 -23 20 -30 9 -6 -10 1 -23 22 -44 26 -27 28 -31 14 -45 -13
-13 -19 -14 -40 -2 -22 12 -25 19 -25 64 1 28 6 54 12 58 6 4 8 10 4 15 -5 4
-12 1 -17 -7 -7 -12 -12 -11 -29 4 -20 18 -21 18 -31 -8 -5 -15 -10 -34 -10
-42 0 -22 -38 -17 -45 6 -3 11 -10 20 -15 20 -5 0 -12 -9 -15 -20 -8 -24 -14
-25 -51 -5 -27 14 -30 14 -39 -8 -13 -29 -24 -37 -57 -37 -40 0 -36 31 5 50
17 8 34 23 35 34 4 16 0 18 -31 12 -30 -6 -37 -3 -52 21 -10 15 -19 36 -19 47
-1 12 -6 33 -10 49 -6 19 -4 34 8 52 16 24 15 25 -4 25 -11 0 -20 7 -20 15 0
8 9 15 19 15 10 0 21 6 24 14 4 9 28 17 61 21 45 6 56 11 56 25 0 38 96 59
135 30 18 -14 55 8 55 32 0 13 4 29 9 37 13 21 43 -5 39 -33 -4 -26 31 -35 44
-12 5 9 19 16 31 16 21 1 21 2 -5 21 -39 29 -37 59 2 59 20 0 30 5 30 15 0 9
-9 15 -23 15 -15 0 -29 9 -37 25 -17 32 -28 32 -32 0 -4 -37 -22 -35 -26 2 -3
26 -8 32 -30 35 -22 2 -27 8 -27 32 0 30 -9 37 -60 53 -22 6 -31 15 -33 36 -3
25 -32 41 -32 17 0 -18 -84 -11 -123 10 -46 25 -47 25 -47 -4 0 -16 -7 -27
-20 -31 -11 -3 -28 -17 -39 -31 -10 -13 -24 -24 -29 -24 -6 0 -15 -7 -20 -16
-8 -15 -12 -14 -41 6 -17 13 -33 32 -37 42 -3 10 -12 18 -20 18 -8 0 -17 7
-20 15 -5 13 -13 11 -43 -12 -20 -15 -37 -31 -39 -35 -5 -11 -40 -10 -47 2 -3
6 -22 10 -41 10 -35 0 -48 22 -19 34 8 3 15 12 15 20 0 17 -27 29 -35 16 -10
-16 -33 -12 -52 9 -21 21 -79 35 -88 21 -10 -17 -32 -11 -38 10 -3 11 -13 20
-22 20 -13 0 -15 5 -9 23 12 35 6 159 -8 168 -6 4 -12 26 -13 49 -1 46 -14 59
-60 60 l-30 1 35 15 c27 12 32 17 20 24 -23 14 -50 12 -56 -5 -6 -16 -54 -21
-54 -6 0 5 7 14 16 22 12 10 14 23 10 53 -3 23 -7 52 -9 65 -1 13 -8 26 -14
29 -7 2 -13 8 -13 14 0 6 -8 17 -17 25 -16 13 -16 14 10 8 15 -3 27 -1 27 4 0
5 9 13 21 16 15 5 18 10 10 18 -18 18 -13 44 11 50 15 4 19 10 12 19 -13 18
-11 90 2 95 6 2 14 -5 17 -17 3 -11 10 -20 16 -20 14 0 14 27 1 35 -19 12 -11
72 11 87 l21 14 -28 29 -29 30 23 23 c17 17 22 30 18 47 -4 14 -3 43 0 65 6
34 9 38 24 30 13 -7 22 -4 35 10 18 19 17 20 -8 20 -17 0 -27 5 -27 15 0 8 -4
15 -10 15 -5 0 -10 7 -10 17 0 15 1 15 18 0 26 -23 32 -21 32 9 0 15 8 33 18
40 14 11 15 15 3 23 -16 10 -6 31 15 31 22 0 17 16 -16 43 -44 37 -48 70 -14
102 28 26 28 26 6 32 -12 3 -22 12 -22 19 0 8 -4 14 -10 14 -13 0 -13 -13 2
-28 9 -9 9 -18 0 -37 -20 -43 -39 -31 -45 28 -6 62 -3 67 29 67 31 0 31 18 0
30 -28 10 -57 52 -34 49 27 -3 36 2 41 22 6 21 7 20 43 -7 41 -32 40 -35 18
36 -5 14 -2 20 10 20 9 0 16 7 16 15 0 8 -4 15 -10 15 -5 0 -10 7 -10 15 0 8
5 15 10 15 19 0 10 28 -10 33 -12 3 -20 14 -20 27 0 22 0 22 -21 -4 -11 -14
-18 -30 -14 -35 7 -12 -44 -61 -63 -61 -21 0 -26 30 -7 44 12 8 16 19 12 30
-9 22 -27 11 -27 -15 0 -37 -37 -22 -61 25 -18 36 -52 66 -74 66 -13 0 -2 -29
16 -46 12 -10 25 -29 30 -41 5 -13 15 -23 23 -23 7 0 16 -7 20 -15 3 -8 15
-15 27 -15 27 0 19 -24 -10 -28 -12 -2 -27 1 -34 6 -17 13 -77 -5 -77 -23 0
-7 5 -17 11 -21 8 -5 6 -10 -5 -16 -9 -5 -16 -20 -16 -33 0 -16 -6 -25 -16
-25 -12 0 -14 3 -6 13 13 15 5 85 -11 105 -7 9 -7 16 1 24 17 17 15 48 -3 54
-8 4 -15 15 -15 26 0 24 -18 59 -38 74 -22 16 2 28 29 14 11 -7 23 -10 25 -7
8 8 -8 37 -21 37 -6 0 -20 9 -30 20 -22 24 -85 28 -85 5 0 -8 9 -15 20 -15 11
0 20 -4 20 -10 0 -5 -2 -10 -4 -10 -2 0 -11 -3 -20 -6 -11 -4 -16 -1 -16 10 0
9 -7 16 -15 16 -8 0 -15 7 -15 15 0 8 5 15 10 15 13 0 50 37 50 50 0 6 -7 10
-15 10 -8 0 -15 -7 -15 -15 0 -8 -6 -15 -14 -15 -8 0 -16 -7 -20 -15 -8 -22
-45 -18 -67 8 -10 12 -18 25 -19 30 0 13 28 7 34 -8 6 -17 36 -21 36 -5 0 6
-5 10 -11 10 -7 0 -8 14 -4 40 5 31 4 40 -7 40 -8 0 -18 -4 -24 -10 -11 -11
-54 -2 -54 12 0 6 -11 7 -25 4 -18 -5 -25 -2 -25 8 0 21 29 28 66 16 19 -6 39
-8 46 -4 16 10 45 14 150 18 71 3 88 1 93 -11 5 -14 8 -14 24 1 10 9 34 17 52
16 19 0 86 2 149 4 208 6 324 23 392 57 21 11 46 19 57 19 11 0 26 7 35 15 8
8 22 15 30 15 9 0 16 5 16 10 0 16 63 50 93 50 24 0 27 -3 22 -20 -7 -23 10
-28 19 -5 7 20 36 19 36 -1 0 -9 -8 -23 -17 -30 -23 -16 -8 -32 16 -17 11 7
22 9 25 6 10 -10 7 -43 -4 -43 -17 0 -11 -35 10 -53 11 -9 20 -25 20 -34 0
-15 2 -16 10 -3 8 13 11 13 27 -2 16 -17 16 -18 -6 -18 -20 0 -22 -3 -16 -22
5 -13 9 -45 9 -73 1 -28 6 -53 14 -58 6 -4 12 -15 12 -23 0 -8 11 -36 24 -62
13 -26 26 -59 29 -73 4 -14 14 -43 24 -65 11 -26 18 -67 18 -121 2 -96 8 -107
91 -150 30 -15 54 -32 54 -37 0 -5 7 -2 16 5 13 11 18 10 32 -9 13 -15 36 -24
87 -32 143 -24 166 -30 194 -51 13 -11 39 -19 58 -19 19 0 39 -4 46 -10 90
-74 100 -80 137 -80 22 0 42 -4 45 -10 8 -14 141 -13 168 1 21 11 39 29 157
159 30 33 61 60 68 60 7 0 23 5 35 12 12 7 32 11 45 9 13 -1 31 4 40 12 9 9
43 17 74 20 87 6 91 12 83 137 l-6 107 55 59 c41 44 55 67 56 89 0 40 -34 95
-59 95 -11 0 -26 7 -33 16 -44 54 -58 64 -81 59 -18 -5 -26 -2 -29 12 -3 11
-23 23 -54 32 -27 8 -55 21 -62 28 -11 11 -19 10 -43 -4 -16 -10 -29 -21 -29
-24 0 -4 -10 -9 -22 -11 -13 -2 -24 -11 -26 -23 -4 -22 -50 -75 -65 -75 -6 0
-15 -7 -21 -15 -16 -23 -136 -32 -136 -11 0 8 5 18 11 22 8 5 6 10 -6 16 -11
7 -21 6 -28 -1 -15 -15 -49 -14 -73 3 -11 9 -30 12 -46 9 -21 -4 -29 -1 -35
13 -9 24 -54 63 -74 64 -22 0 -39 21 -39 48 0 17 -9 27 -35 37 -19 8 -39 24
-45 36 -9 16 -18 19 -37 14 -14 -3 -30 -1 -37 4 -9 8 -19 4 -34 -14 -24 -27
-48 -32 -55 -12 -2 8 -16 0 -37 -20 -19 -18 -42 -33 -51 -33 -10 0 -20 -8 -24
-18 -5 -18 -44 -42 -67 -42 -7 0 -25 -12 -40 -27 -25 -24 -31 -26 -48 -15 -12
7 -20 8 -20 2 0 -6 -16 -18 -35 -27 -19 -9 -39 -28 -45 -42 -8 -20 -9 -3 -6
68 3 63 10 98 20 110 8 9 19 34 25 56 16 67 38 118 59 140 11 11 22 38 24 60
5 37 24 112 50 195 6 19 19 45 28 58 10 12 23 45 30 72 7 28 16 53 21 56 5 3
9 17 9 32 0 51 93 310 126 352 6 8 21 41 33 72 53 147 119 237 172 238 8 1 25
7 39 16 32 19 122 11 164 -16z m634 -10 c2 -14 8 -30 13 -37 11 -13 -5 -28
-21 -18 -5 3 -18 1 -29 -5 -27 -14 -34 2 -16 36 8 16 15 35 15 42 0 24 35 8
38 -18z m472 -10 c0 -11 -7 -20 -15 -20 -15 0 -21 21 -8 33 12 13 23 7 23 -13z
m47 -81 c-15 -25 -49 -26 -40 -1 12 33 25 43 39 31 10 -8 11 -15 1 -30z m183
-125 c0 -17 -3 -34 -7 -38 -4 -4 -8 -15 -8 -24 0 -9 -7 -17 -15 -17 -10 0 -14
8 -12 27 1 14 -2 29 -7 32 -5 4 -5 19 1 40 10 30 13 33 29 23 12 -7 19 -23 19
-43z m-2030 -517 c0 -26 -30 -67 -49 -67 -18 0 -13 28 11 60 26 36 38 38 38 7z
m2444 -527 c7 0 16 -11 18 -25 4 -20 1 -25 -16 -25 -11 0 -31 -3 -43 -6 -27
-7 -33 20 -7 30 8 3 12 10 9 16 -3 6 -3 20 1 32 l7 23 8 -23 c5 -12 15 -22 23
-22z m56 20 c0 -5 -5 -12 -11 -16 -14 -8 -33 11 -25 25 7 11 36 4 36 -9z
m-144 -35 c-6 -17 -42 -20 -51 -5 -3 5 6 12 20 16 14 3 25 11 26 18 0 7 3 6 6
-2 3 -7 2 -19 -1 -27z m-3886 -181 c0 -16 -16 -19 -25 -4 -8 13 4 32 16 25 5
-4 9 -13 9 -21z m159 -100 c20 -21 22 -27 10 -35 -24 -15 -37 -10 -52 20 -24
48 3 57 42 15z m2775 0 c4 -9 4 -19 2 -22 -10 -9 -36 8 -36 23 0 20 26 19 34
-1z m-2696 -57 c2 -12 -3 -17 -17 -17 -12 0 -21 6 -21 13 0 31 32 34 38 4z
m2656 -3 c12 -32 5 -49 -25 -63 -19 -8 -28 -18 -25 -28 9 -22 -22 -60 -52 -66
-17 -3 -39 2 -59 15 -36 21 -36 21 -27 66 6 30 8 31 48 26 39 -6 44 -4 69 30
29 38 61 47 71 20z m-2761 -22 c-7 -4 -16 -19 -22 -32 -9 -22 -10 -23 -10 -4
-1 21 16 44 34 44 6 0 5 -4 -2 -8z m3470 -10 c-20 -21 -33 -19 -33 4 0 8 10
14 25 14 24 0 24 -1 8 -18z m-1815 -12 c18 -11 32 -28 32 -39 0 -24 -71 -71
-107 -71 -40 0 -50 10 -57 56 -6 35 -4 41 16 52 21 10 49 18 73 21 6 0 25 -8
43 -19z m-158 -4 c0 -25 -12 -46 -26 -46 -9 0 -14 11 -14 30 0 23 4 30 20 30
11 0 20 -6 20 -14z m894 -21 c32 -49 -2 -95 -70 -95 -21 0 -23 -2 -12 -20 15
-23 4 -38 -16 -21 -12 10 -22 8 -50 -11 -20 -13 -36 -31 -36 -40 0 -22 -18
-24 -26 -3 -4 10 -20 15 -45 15 -21 0 -42 6 -46 13 -4 6 -29 29 -55 50 -27 21
-48 45 -48 53 0 11 -6 13 -21 9 -26 -9 -41 12 -28 37 12 23 37 23 62 1 16 -15
39 -18 134 -18 100 0 116 2 128 19 9 12 26 18 49 18 20 0 39 4 42 9 9 15 21
10 38 -16z m-2233 -54 c-9 -6 -11 -18 -7 -36 6 -25 6 -26 -9 -11 -9 9 -21 16
-26 16 -17 0 -9 28 14 43 14 10 26 12 32 6 6 -7 5 -13 -4 -18z m-143 -19 c2
-7 -3 -12 -12 -12 -9 0 -16 7 -16 16 0 17 22 14 28 -4z m472 3 c0 -9 -6 -12
-15 -9 -8 4 -12 10 -9 15 8 14 24 10 24 -6z m-82 -27 c-6 -18 -28 -21 -28 -4
0 9 7 16 16 16 9 0 14 -5 12 -12z m-338 -14 c0 -14 -3 -14 -15 -4 -8 7 -15 14
-15 16 0 2 7 4 15 4 8 0 15 -7 15 -16z m-1902 -43 c16 -10 12 -53 -5 -58 -6
-2 -21 5 -32 16 -11 11 -27 18 -36 15 -9 -4 -15 0 -15 9 0 23 61 35 88 18z
m3212 -35 c0 -2 -7 -9 -15 -16 -12 -10 -15 -10 -15 4 0 9 7 16 15 16 8 0 15
-2 15 -4z m-1001 -58 c1 -5 -3 -8 -8 -8 -11 0 -21 37 -13 45 6 5 20 -19 21
-37z m1761 28 c0 -7 9 -16 21 -19 18 -5 19 -28 1 -27 -16 1 -53 40 -47 50 9
15 25 12 25 -4z m1270 -31 c0 -8 -7 -15 -15 -15 -8 0 -15 7 -15 15 0 8 7 15
15 15 8 0 15 -7 15 -15z m-2987 -129 c9 -7 17 -18 17 -25 0 -15 -23 -14 -38 1
-13 13 -16 38 -4 38 4 0 15 -7 25 -14z m47 -81 c0 -8 -4 -15 -10 -15 -5 0 -10
7 -10 15 0 8 5 15 10 15 6 0 10 -7 10 -15z m3809 -523 c21 -3 23 -1 17 22 -7
29 0 32 27 12 26 -20 21 -33 -18 -47 -19 -7 -35 -17 -35 -21 0 -4 -11 -8 -25
-8 -31 0 -31 -9 -4 -44 22 -29 18 -41 -16 -49 -18 -4 -17 -5 3 -6 30 -1 53 22
50 51 -3 19 2 23 22 23 19 0 30 -10 46 -40 18 -35 25 -40 60 -43 52 -4 63 -17
25 -30 -22 -8 -29 -16 -25 -26 5 -12 11 -13 24 -6 14 7 23 6 34 -5 13 -13 15
-13 18 7 4 27 26 35 34 13 7 -16 -24 -85 -38 -85 -5 0 -8 -5 -8 -11 0 -8 4 -8
15 1 18 15 35 5 35 -21 0 -12 7 -19 20 -19 13 0 20 7 20 19 0 10 7 21 14 24
17 7 12 -14 -11 -48 -20 -29 -16 -55 7 -55 11 0 20 7 20 16 0 8 5 12 10 9 8
-5 7 -11 0 -20 -14 -17 -5 -35 17 -35 11 0 14 -6 9 -25 -4 -17 -1 -31 8 -40
17 -17 82 -20 91 -5 3 6 10 10 16 10 17 0 9 -22 -16 -46 -14 -13 -25 -26 -25
-30 0 -4 -8 -13 -17 -20 -10 -7 -14 -16 -10 -21 5 -4 15 1 24 12 15 20 15 20
30 -2 9 -13 26 -23 38 -23 16 0 26 -8 33 -27 l10 -28 7 28 c5 20 13 27 31 27
l23 0 -26 -50 c-18 -35 -23 -54 -16 -62 6 -7 13 -26 17 -41 5 -22 11 -27 26
-22 29 9 90 -5 90 -21 0 -7 6 -11 14 -8 19 7 56 -13 56 -31 0 -7 -9 -17 -21
-20 -23 -8 -21 -28 4 -33 12 -2 17 3 17 17 0 12 5 21 10 21 6 0 10 17 10 38 0
51 13 70 34 52 12 -9 15 -22 10 -45 -6 -34 14 -65 42 -65 8 0 14 -4 14 -10 0
-5 -9 -10 -19 -10 -26 0 -76 -46 -61 -55 6 -4 18 -4 26 -1 10 4 18 -1 21 -14
9 -34 33 -24 31 13 -2 23 1 32 12 32 18 0 27 -62 11 -78 -14 -14 -14 -47 0
-47 7 0 9 -10 5 -26 -5 -20 -3 -24 10 -22 9 2 21 -5 28 -15 9 -15 7 -21 -8
-32 -10 -8 -15 -19 -10 -26 5 -9 10 -8 20 5 8 11 21 16 36 13 l23 -4 -22 -8
c-29 -9 -29 -18 1 -50 26 -28 25 -61 -3 -82 -9 -6 -12 -15 -8 -20 5 -4 15 0
22 11 8 10 18 15 24 11 16 -9 13 -42 -4 -49 -17 -6 -21 -66 -5 -66 6 0 24 -14
40 -30 16 -17 36 -30 45 -30 18 0 18 -2 3 -35 -7 -16 -19 -25 -35 -25 -14 0
-23 -6 -23 -15 0 -8 9 -15 20 -15 20 0 60 -32 60 -49 0 -5 6 -11 14 -14 9 -4
12 -14 9 -27 -4 -16 0 -23 16 -27 11 -3 21 -12 21 -20 0 -20 -63 -9 -132 23
-29 14 -71 34 -93 44 -74 35 -116 51 -168 67 -29 8 -119 46 -200 84 -81 38
-160 69 -174 69 -14 0 -41 7 -61 16 -72 31 -98 42 -177 68 -144 49 -323 95
-371 96 -11 0 -51 9 -87 21 -81 25 -83 30 -73 167 6 77 12 104 30 132 13 19
32 51 44 70 25 44 102 269 102 301 0 13 7 47 16 74 9 28 18 61 19 75 18 135
32 154 82 108 22 -19 25 -20 20 -5 -4 10 -7 23 -7 28 0 5 -9 9 -20 9 -43 0
-37 115 11 212 5 10 9 26 9 36 0 11 6 34 12 53 l13 34 5 -40 c4 -33 9 -41 29
-43z m123 -31 c9 -11 14 -21 12 -24 -10 -9 -40 5 -52 24 -10 16 -9 19 6 19 10
0 25 -9 34 -19z m-5645 -43 c3 12 9 22 14 22 14 0 10 -28 -5 -37 -7 -4 -16
-15 -19 -23 -4 -12 -6 -11 -6 3 -1 9 -7 17 -15 17 -19 0 -29 17 -20 32 5 8 13
4 26 -12 l19 -23 6 21z m5658 -33 c0 -5 -10 -11 -22 -13 -16 -2 -23 2 -23 13
0 11 7 15 23 13 12 -2 22 -7 22 -13z m65 -11 c0 -8 -4 -12 -10 -9 -5 3 -10 13
-10 21 0 8 5 12 10 9 6 -3 10 -13 10 -21z m-5902 -16 c-6 -18 -28 -21 -28 -4
0 9 7 16 16 16 9 0 14 -5 12 -12z m6016 -99 c-7 -11 -34 -12 -34 -1 0 14 11
21 26 15 8 -3 11 -9 8 -14z m-3494 -79 c0 -15 -7 -20 -25 -20 -24 0 -34 18
-18 33 15 15 43 7 43 -13z m3590 -40 c0 -5 -7 -10 -15 -10 -8 0 -15 5 -15 10
0 6 7 10 15 10 8 0 15 -4 15 -10z m-2842 -52 c-6 -18 -28 -21 -28 -4 0 9 7 16
16 16 9 0 14 -5 12 -12z m768 -96 c-11 -10 -14 3 -8 33 l7 30 3 -28 c2 -16 1
-31 -2 -35z m-69 -4 c15 -7 38 -23 51 -35 21 -20 22 -23 8 -29 -9 -3 -23 -1
-31 6 -22 18 -31 4 -15 -25 11 -21 11 -29 0 -50 -18 -33 -40 -32 -70 5 -29 35
-40 38 -40 10 0 -11 -5 -20 -10 -20 -17 0 -23 29 -9 46 7 8 15 31 18 52 5 27
12 38 31 43 36 10 37 10 67 -3z m-4220 -33 c-10 -7 -17 -17 -17 -24 0 -6 -7
-11 -15 -11 -8 0 -15 5 -15 11 0 15 43 48 54 42 5 -4 2 -11 -7 -18z m6463 -16
c0 -12 -7 -19 -18 -19 -28 0 -34 11 -16 31 19 21 34 16 34 -12z m124 -108
c-10 -10 -21 -17 -23 -15 -6 6 20 34 32 34 6 0 2 -8 -9 -19z m-2256 -13 c-6
-18 -28 -21 -28 -4 0 9 7 16 16 16 9 0 14 -5 12 -12z m128 -23 c-27 -25 -56
-33 -56 -16 0 13 42 40 64 40 16 1 15 -2 -8 -24z m2152 -27 c-4 -27 -28 -36
-28 -10 0 20 8 32 22 32 5 0 8 -10 6 -22z m-2408 -9 c0 -11 -4 -17 -10 -14 -5
3 -10 13 -10 21 0 8 5 14 10 14 6 0 10 -9 10 -21z m280 -9 c0 -11 5 -20 12
-20 6 0 9 -3 6 -6 -4 -3 -16 -1 -27 6 -24 12 -28 40 -6 40 8 0 15 -9 15 -20z
m2230 -14 c0 -47 -30 -45 -45 2 -5 19 -3 22 19 22 21 0 26 -5 26 -24z m-6984
-243 c-11 -11 -19 6 -11 24 8 17 8 17 12 0 3 -10 2 -21 -1 -24z m3384 -68 c0
-8 -9 -15 -20 -15 -11 0 -20 7 -20 15 0 8 9 15 20 15 11 0 20 -7 20 -15z
m-3370 -23 c0 -13 -12 -22 -22 -16 -10 6 -1 24 13 24 5 0 9 -4 9 -8z m-273
-258 c-3 -4 -13 -4 -22 0 -13 5 -14 10 -4 28 l12 23 10 -23 c6 -12 7 -25 4
-28z m7568 15 c4 -6 -2 -13 -14 -16 -12 -3 -21 -13 -21 -24 0 -30 -17 -31 -23
-1 -8 38 40 72 58 41z m-7450 -78 c3 -6 0 -13 -8 -18 -7 -4 -18 -19 -24 -33
l-11 -25 -7 28 c-4 15 -4 38 -1 52 5 21 10 24 26 15 10 -5 21 -14 25 -19z
m7445 -22 c0 -5 -7 -9 -15 -9 -15 0 -20 12 -9 23 8 8 24 -1 24 -14z m-7688
-54 c0 -5 -5 -11 -11 -13 -6 -2 -11 4 -11 13 0 9 5 15 11 13 6 -2 11 -8 11
-13z m98 -15 c0 -21 -16 -35 -24 -22 -8 13 5 53 15 46 5 -3 9 -14 9 -24z m69
-3 c13 -16 5 -27 -21 -27 -18 0 -25 20 -11 33 10 10 19 8 32 -6z m7594 -79
c10 -10 15 -23 12 -28 -9 -15 -25 -12 -25 5 0 8 -6 15 -12 15 -18 0 -39 48
-24 53 6 3 16 -2 21 -11 6 -8 18 -24 28 -34z m-7729 -17 c3 -5 -1 -14 -9 -21
-8 -7 -15 -19 -15 -27 0 -29 -25 -6 -28 25 -3 28 0 32 22 32 14 0 27 -4 30 -9z
m4206 -10 c0 -14 -18 -23 -30 -16 -6 4 -8 11 -5 16 8 12 35 12 35 0z m-4294
-57 c8 -30 -12 -57 -22 -31 -8 21 -34 22 -34 2 0 -16 -12 -20 -24 -8 -7 7 49
63 64 63 5 0 13 -12 16 -26z m6332 3 c2 -10 -3 -17 -12 -17 -8 0 -19 -7 -24
-16 -7 -13 -14 -14 -27 -6 -17 9 -17 10 3 21 12 7 22 19 22 27 0 21 34 13 38
-9z m1562 -46 c0 -14 -18 -23 -31 -15 -8 4 -7 9 2 15 18 11 29 11 29 0z
m-1564 -13 c14 -22 22 -93 13 -110 -6 -10 -5 -19 0 -23 6 -3 13 -26 17 -50 3
-25 10 -48 15 -51 5 -3 7 -15 4 -27 -4 -12 -2 -47 3 -78 5 -36 5 -61 -2 -71
-7 -12 -6 -24 2 -40 6 -13 16 -54 22 -92 11 -71 4 -96 -26 -96 -19 0 -18 -29
1 -36 22 -9 18 -34 -5 -34 -11 0 -20 -4 -20 -8 0 -14 -64 -31 -95 -25 -30 6
-65 34 -65 52 0 5 10 11 23 13 16 2 23 11 25 30 2 16 -1 28 -7 28 -6 0 -11 7
-11 15 0 8 7 15 15 15 20 0 19 7 -5 37 -28 36 -25 61 7 74 20 7 23 13 15 21
-7 7 -12 23 -12 35 0 22 3 23 35 17 28 -5 35 -3 35 10 0 9 -8 16 -18 16 -10 0
-23 5 -30 12 -8 8 -15 8 -27 -2 -13 -10 -15 -9 -15 7 0 11 -9 30 -19 42 -16
18 -18 28 -10 54 5 18 9 44 9 59 0 15 6 31 14 35 9 5 18 36 23 78 7 63 10 70
31 73 13 2 26 10 29 18 6 17 19 18 29 2z m-6296 -33 c0 -8 -7 -15 -15 -15 -8
0 -15 7 -15 15 0 8 7 15 15 15 8 0 15 -7 15 -15z m-70 -5 c0 -5 -11 -17 -25
-26 -14 -9 -25 -22 -25 -30 0 -19 -16 -26 -28 -11 -8 9 -4 21 14 45 24 30 64
44 64 22z m-125 -19 c7 -12 -12 -24 -25 -16 -11 7 -4 25 10 25 5 0 11 -4 15
-9z m13 -99 c2 -7 -3 -12 -12 -12 -9 0 -16 7 -16 16 0 17 22 14 28 -4z m-107
-57 c-1 -15 -24 -12 -29 3 -3 9 2 13 12 10 10 -1 17 -7 17 -13z m8439 -20 c16
-8 37 -12 47 -8 15 5 16 3 6 -8 -7 -7 -13 -21 -13 -31 0 -10 -8 -21 -17 -25
-10 -3 -25 -12 -33 -19 -13 -10 -91 -19 -141 -15 -14 1 -39 58 -39 90 0 18 49
12 70 -9 23 -23 30 -25 30 -9 0 12 40 48 53 49 4 0 21 -7 37 -15z m-8489 -48
c-13 -13 -26 -3 -16 12 3 6 11 8 17 5 6 -4 6 -10 -1 -17z m-101 -88 c0 -14 -5
-19 -17 -17 -26 5 -29 38 -4 38 15 0 21 -6 21 -21z m85 1 c0 -22 -29 -18 -33
3 -3 14 1 18 15 15 10 -2 18 -10 18 -18z m8408 -67 c16 -9 6 -23 -18 -23 -15
0 -25 6 -25 14 0 8 -6 17 -12 20 -7 3 1 3 17 -1 17 -3 33 -8 38 -10z m-8597
-48 c4 -8 3 -23 0 -32 -6 -15 -8 -15 -16 -3 -13 20 -12 50 0 50 6 0 13 -7 16
-15z m64 -50 c10 -12 10 -15 -4 -15 -9 0 -16 7 -16 15 0 8 2 15 4 15 2 0 9 -7
16 -15z m-37 -39 c6 -16 -2 -28 -14 -20 -12 7 -11 34 0 34 5 0 11 -6 14 -14z
m-85 -33 c2 -8 -6 -13 -22 -13 -17 0 -26 5 -26 16 0 19 41 16 48 -3z m6762
-154 c0 -5 -6 -9 -14 -9 -15 0 -28 24 -19 34 7 7 33 -13 33 -25z m130 -39 c0
-14 -7 -20 -22 -20 -20 0 -21 1 -3 20 10 11 20 20 22 20 1 0 3 -9 3 -20z m-77
-25 c8 -19 -13 -31 -23 -14 -9 14 -4 29 10 29 4 0 10 -7 13 -15z"
    />
    <path
      d="M2400 7430 c-8 -15 -6 -24 10 -40 11 -11 25 -20 30 -20 6 0 10 -6 10
-13 0 -15 44 -39 54 -30 14 15 4 35 -24 44 -33 12 -48 43 -30 64 10 13 8 15
-13 15 -16 0 -31 -8 -37 -20z"
    />
    <path d="M1277 7914 c-8 -8 1 -24 14 -24 5 0 9 7 9 15 0 15 -12 20 -23 9z" />
    <path
      d="M1347 7823 c-10 -9 -9 -53 1 -53 5 0 16 8 25 18 13 14 14 21 5 30
-14 14 -22 15 -31 5z"
    />
    <path
      d="M1203 7338 c-25 -12 -27 -16 -13 -38 7 -12 12 -12 34 0 14 7 26 22
26 32 0 20 -14 22 -47 6z"
    />
    <path
      d="M5820 4065 c0 -8 5 -15 10 -15 6 0 10 7 10 15 0 8 -4 15 -10 15 -5 0
-10 -7 -10 -15z"
    />
    <path
      d="M4066 4031 c-3 -5 0 -11 7 -13 17 -7 38 2 31 13 -7 12 -31 12 -38 0z"
    />
    <path
      d="M6484 3879 c-8 -13 25 -24 37 -12 7 7 3 12 -10 16 -12 3 -24 1 -27
-4z"
    />
    <path
      d="M3417 3744 c-13 -14 -7 -54 8 -54 16 0 18 14 6 43 -3 10 -10 15 -14
11z"
    />
    <path
      d="M3230 3635 c0 -8 7 -15 15 -15 8 0 15 7 15 15 0 8 -7 15 -15 15 -8 0
-15 -7 -15 -15z"
    />
    <path
      d="M6144 2665 c-7 -29 -1 -41 15 -30 14 8 14 55 1 55 -5 0 -12 -11 -16
-25z"
    />
    <path
      d="M3875 2620 c-3 -6 1 -13 9 -16 9 -3 16 -17 16 -29 0 -28 12 -38 34
-29 23 9 20 18 -15 53 -34 35 -35 35 -44 21z"
    />
    <path
      d="M6160 2600 c-11 -7 -12 -14 -4 -27 18 -30 34 -27 34 6 0 33 -6 37
-30 21z"
    />
    <path
      d="M3381 2356 c-11 -13 -11 -20 -3 -28 15 -15 24 -5 20 23 -3 21 -4 21
-17 5z"
    />
    <path
      d="M4915 2059 c-4 -6 -5 -13 -2 -16 7 -7 27 6 27 18 0 12 -17 12 -25 -2z"
    />
    <path
      d="M4963 2043 c-13 -13 -23 -28 -23 -33 0 -6 -7 -10 -15 -10 -8 0 -15 7
-15 15 0 8 -4 15 -10 15 -14 0 -12 -23 4 -45 13 -18 17 -18 42 -5 34 17 74 50
74 61 0 5 -8 12 -17 17 -13 6 -24 2 -40 -15z"
    />
    <path
      d="M5020 2017 c0 -21 24 -47 36 -39 16 10 -1 52 -21 52 -8 0 -15 -6 -15
-13z"
    />
    <path
      d="M5870 2005 c0 -8 5 -15 10 -15 6 0 10 7 10 15 0 8 -4 15 -10 15 -5 0
-10 -7 -10 -15z"
    />
    <path
      d="M5090 1975 c7 -8 16 -15 21 -15 5 0 9 7 9 15 0 9 -9 15 -21 15 -18 0
-19 -2 -9 -15z"
    />
    <path
      d="M4690 1930 c0 -16 7 -20 30 -20 34 0 39 14 11 30 -29 15 -41 12 -41
-10z"
    />
    <path d="M5897 1934 c-8 -8 1 -24 14 -24 5 0 9 7 9 15 0 15 -12 20 -23 9z" />
    <path
      d="M5040 1889 c0 -25 4 -38 10 -34 6 4 8 16 5 26 -4 11 -1 26 5 34 10
12 9 15 -4 15 -12 0 -16 -10 -16 -41z"
    />
    <path
      d="M5242 1903 c2 -10 10 -18 18 -18 8 0 16 8 18 18 2 12 -3 17 -18 17
-15 0 -20 -5 -18 -17z"
    />
    <path
      d="M4380 1874 c0 -11 -4 -24 -10 -30 -15 -15 0 -54 21 -54 10 0 21 5 24
10 3 6 13 10 22 10 13 0 13 -3 3 -15 -21 -25 4 -44 28 -22 10 9 26 17 35 17 9
0 17 7 17 15 0 8 -9 15 -20 15 -11 0 -23 7 -26 15 -4 8 -15 15 -27 15 -11 0
-31 10 -44 22 -22 21 -23 21 -23 2z"
    />
    <path
      d="M4770 1872 c0 -21 -59 -72 -83 -72 -15 0 -32 -9 -40 -21 -17 -24 -68
-29 -92 -9 -12 10 -18 11 -23 2 -4 -6 -20 -15 -35 -21 -28 -11 -45 -36 -32
-49 3 -4 11 1 16 11 12 21 39 23 39 2 0 -8 7 -15 15 -15 8 0 15 -4 15 -10 0
-5 9 -10 20 -10 25 0 26 16 3 29 -28 15 -12 20 37 11 25 -5 56 -9 69 -10 23 0
24 1 6 20 -17 19 -17 20 9 30 15 5 30 10 34 10 4 0 15 14 24 30 9 17 25 30 34
30 11 0 14 5 10 16 -3 9 -6 20 -6 25 0 5 -4 9 -10 9 -5 0 -10 -4 -10 -8z"
    />
    <path
      d="M4620 1816 c0 -8 5 -18 10 -21 6 -3 10 3 10 14 0 12 -4 21 -10 21 -5
0 -10 -6 -10 -14z"
    />
    <path
      d="M4550 1805 c0 -8 5 -15 10 -15 6 0 10 7 10 15 0 8 -4 15 -10 15 -5 0
-10 -7 -10 -15z"
    />
    <path
      d="M4820 1804 c0 -9 5 -14 12 -12 18 6 21 28 4 28 -9 0 -16 -7 -16 -16z"
    />
    <path
      d="M4797 1776 c-3 -8 -2 -18 3 -21 13 -8 24 15 12 27 -6 6 -11 4 -15 -6z"
    />
    <path
      d="M5360 1770 c0 -5 7 -10 15 -10 8 0 15 5 15 10 0 6 -7 10 -15 10 -8 0
-15 -4 -15 -10z"
    />
    <path
      d="M4830 1712 c0 -25 3 -28 35 -29 39 -1 43 4 18 24 -45 34 -53 35 -53
5z"
    />
    <path
      d="M4756 1671 c-4 -6 -4 -22 0 -36 4 -15 2 -25 -5 -25 -6 0 -11 -7 -11
-16 0 -11 5 -14 16 -10 9 3 20 6 25 6 14 0 7 83 -8 87 -6 2 -14 0 -17 -6z"
    />
    <path
      d="M4295 1150 c-3 -5 1 -10 9 -10 8 0 18 5 21 10 3 6 -1 10 -9 10 -8 0
-18 -4 -21 -10z"
    />
    <path
      d="M7300 2465 c0 -10 10 -15 34 -15 22 0 36 -6 40 -17 5 -11 10 -13 17
-6 8 8 5 17 -10 32 -25 25 -81 29 -81 6z"
    />
    <path
      d="M7225 2440 c-9 -15 37 -30 53 -18 6 6 12 14 12 19 0 12 -57 11 -65
-1z"
    />
    <path
      d="M7316 2412 c-3 -6 -1 -14 5 -17 15 -10 25 3 12 16 -7 7 -13 7 -17 1z"
    />
    <path
      d="M7460 2370 c0 -11 7 -20 15 -20 8 0 15 9 15 20 0 11 -7 20 -15 20 -8
0 -15 -9 -15 -20z"
    />
    <path
      d="M7410 2356 c0 -19 19 -31 31 -19 5 5 0 14 -11 21 -17 10 -20 10 -20
-2z"
    />
    <path
      d="M7460 2315 c0 -8 7 -15 15 -15 8 0 15 7 15 15 0 8 -7 15 -15 15 -8 0
-15 -7 -15 -15z"
    />
    <path
      d="M7770 1897 c0 -13 39 -41 47 -33 3 2 2 14 -2 25 -7 23 -45 29 -45 8z"
    />
    <path
      d="M8095 1511 c-7 -12 12 -24 25 -16 11 7 4 25 -10 25 -5 0 -11 -4 -15
-9z"
    />
    <path
      d="M8226 1433 c-11 -11 -6 -23 9 -23 8 0 15 4 15 9 0 13 -16 22 -24 14z"
    />
    <path
      d="M8210 1361 c0 -20 13 -41 21 -35 15 9 10 44 -6 44 -8 0 -15 -4 -15
-9z"
    />
    <path
      d="M8246 1293 c-12 -12 -6 -33 9 -33 8 0 15 6 15 14 0 17 -14 28 -24 19z"
    />
    <path
      d="M8229 1213 c6 -13 18 -23 25 -23 8 0 16 -7 20 -15 9 -23 28 -18 24 8
-2 15 -11 23 -28 25 -14 2 -31 9 -39 15 -12 10 -12 9 -2 -10z"
    />
    <path
      d="M6920 820 c0 -5 7 -10 15 -10 8 0 15 5 15 10 0 6 -7 10 -15 10 -8 0
-15 -4 -15 -10z"
    />
    <path
      d="M6994 455 c-9 -22 1 -29 15 -11 8 10 9 16 1 21 -5 3 -13 -1 -16 -10z"
    />
    <path
      d="M6985 310 c-8 -24 7 -46 24 -36 15 10 14 31 -3 45 -11 10 -16 8 -21
-9z"
    />
    <path
      d="M6941 241 c-6 -10 -8 -21 -4 -24 9 -10 43 12 43 28 0 21 -27 18 -39
-4z"
    />
    <path
      d="M6973 8969 c-15 -38 -1 -46 60 -33 36 8 42 13 45 37 3 26 2 27 -45
27 -45 0 -49 -2 -60 -31z"
    />
    <path
      d="M6592 8933 c5 -25 28 -28 28 -4 0 12 -6 21 -16 21 -9 0 -14 -7 -12
-17z"
    />
    <path
      d="M6628 8894 c-9 -8 15 -64 28 -64 15 0 15 53 0 62 -13 9 -21 10 -28 2z"
    />
    <path
      d="M6446 8863 c-3 -3 -6 -12 -6 -19 0 -9 8 -10 35 -1 19 6 34 11 32 12
-9 7 -55 13 -61 8z"
    />
    <path
      d="M7233 8743 c-10 -11 -29 -25 -43 -31 -14 -7 -36 -19 -50 -27 l-25
-15 24 0 c14 0 41 5 60 12 80 26 92 33 89 53 -4 27 -32 30 -55 8z"
    />
    <path
      d="M7015 8700 c-7 -12 2 -30 16 -30 5 0 9 9 9 20 0 21 -15 27 -25 10z"
    />
    <path
      d="M1764 2433 c-10 -16 -16 -16 -43 -6 -34 12 -40 4 -15 -21 23 -24 49
-35 60 -28 8 6 34 56 34 67 0 12 -26 3 -36 -12z"
    />
    <path
      d="M1681 2339 c-13 -11 -21 -22 -17 -26 9 -10 56 18 56 34 0 18 -11 16
-39 -8z"
    />
    <path
      d="M1770 2340 c0 -12 -7 -20 -17 -21 -13 0 -14 -2 -4 -6 8 -3 20 2 28
13 16 21 17 34 3 34 -5 0 -10 -9 -10 -20z"
    />
    <path
      d="M1826 2301 c-10 -15 12 -51 30 -51 14 0 13 3 -22 58 -1 2 -5 -1 -8
-7z"
    />
    <path
      d="M1582 2134 c4 -21 22 -23 26 -1 2 10 -3 17 -13 17 -10 0 -15 -6 -13
-16z"
    />
    <path
      d="M1332 1963 c-29 -38 -32 -63 -7 -63 8 0 15 -10 17 -22 2 -17 10 -24
33 -25 45 -4 104 57 84 88 -5 8 -6 22 -3 32 3 9 1 17 -5 17 -6 0 -14 -18 -17
-40 -7 -46 -24 -51 -44 -15 -10 20 -11 28 -2 37 17 17 15 28 -7 28 -11 0 -33
-17 -49 -37z m52 -47 c12 -19 13 -27 4 -32 -7 -4 -14 -2 -16 4 -2 7 -10 12
-18 12 -8 0 -14 9 -14 20 0 28 24 25 44 -4z"
    />
    <path
      d="M1492 1966 c1 -10 8 -17 13 -17 15 1 12 24 -3 29 -9 3 -13 -2 -10
-12z"
    />
    <path
      d="M1400 1809 c0 -6 9 -13 20 -16 11 -3 20 -10 20 -16 0 -6 3 -8 6 -5 8
9 -19 48 -33 48 -7 0 -13 -5 -13 -11z"
    />
    <path
      d="M1290 1745 c0 -9 9 -15 25 -15 16 0 25 -6 25 -15 0 -8 5 -15 10 -15
15 0 12 17 -7 40 -20 23 -53 27 -53 5z"
    />
    <path
      d="M1250 1699 c0 -38 24 -35 28 4 2 19 -1 27 -12 27 -11 0 -16 -10 -16
-31z"
    />
    <path
      d="M1280 1624 c0 -9 5 -14 12 -12 18 6 21 28 4 28 -9 0 -16 -7 -16 -16z"
    />
    <path
      d="M1314 1596 c-8 -22 3 -33 18 -18 9 9 9 15 0 24 -9 9 -13 7 -18 -6z"
    />
    <path
      d="M1262 1569 c2 -7 10 -15 17 -17 8 -3 12 1 9 9 -2 7 -10 15 -17 17 -8
3 -12 -1 -9 -9z"
    />
    <path
      d="M1240 1505 c0 -8 9 -15 20 -15 11 0 20 7 20 15 0 8 -9 15 -20 15 -11
0 -20 -7 -20 -15z"
    />
    <path
      d="M1310 1475 c0 -9 5 -15 11 -13 6 2 11 8 11 13 0 5 -5 11 -11 13 -6 2
-11 -4 -11 -13z"
    />
    <path d="M1077 1304 c-9 -9 4 -35 14 -28 5 3 9 12 9 20 0 14 -12 19 -23 8z" />
    <path
      d="M1072 1241 c-9 -5 -3 -8 18 -9 17 0 28 4 25 9 -8 11 -26 11 -43 0z"
    />
    <path
      d="M1010 1085 c0 -8 7 -15 15 -15 8 0 15 7 15 15 0 8 -7 15 -15 15 -8 0
-15 -7 -15 -15z"
    />
    <path
      d="M804 939 c-8 -13 35 -51 48 -43 4 3 8 16 8 30 0 19 -5 24 -24 24 -14
0 -28 -5 -32 -11z"
    />
    <path
      d="M730 840 c0 -5 -11 -10 -25 -10 -16 0 -25 -6 -25 -15 0 -10 10 -15
29 -15 16 0 31 -6 34 -12 2 -7 8 -9 13 -5 5 4 2 12 -6 18 -13 8 -13 11 3 23
22 17 22 26 -3 26 -11 0 -20 -4 -20 -10z"
    />
    <path
      d="M637 682 c-32 -4 -31 -25 1 -30 13 -2 25 3 28 13 8 20 6 21 -29 17z"
    />
    <path
      d="M467 572 c-25 -27 -22 -45 6 -37 31 10 41 21 34 39 -8 21 -20 20 -40
-2z"
    />
    <path
      d="M404 489 c-10 -17 13 -36 27 -22 12 12 4 33 -11 33 -5 0 -12 -5 -16
-11z"
    />
    <path
      d="M472 488 c6 -18 28 -21 28 -4 0 9 -7 16 -16 16 -9 0 -14 -5 -12 -12z"
    />
    <path
      d="M510 445 c0 -15 4 -24 10 -20 6 3 10 12 10 20 0 8 -4 17 -10 20 -6 4
-10 -5 -10 -20z"
    />
    <path
      d="M446 433 c-11 -11 -6 -23 9 -23 8 0 15 4 15 9 0 13 -16 22 -24 14z"
    />
    <path
      d="M356 353 c-11 -11 -6 -23 9 -23 8 0 15 4 15 9 0 13 -16 22 -24 14z"
    />
    <path
      d="M410 340 c0 -5 7 -10 15 -10 8 0 15 5 15 10 0 6 -7 10 -15 10 -8 0
-15 -4 -15 -10z"
    />
    <path
      d="M442 309 c2 -7 10 -15 17 -17 8 -3 12 1 9 9 -2 7 -10 15 -17 17 -8 3
-12 -1 -9 -9z"
    />
    <path d="M294 226 c-8 -22 3 -33 18 -18 9 9 9 15 0 24 -9 9 -13 7 -18 -6z" />
  </g>
</svg>
